<svg xmlns="http://www.w3.org/2000/svg" version="1.1" xmlns:xlink="http://www.w3.org/1999/xlink" xmlns:svgjs="http://svgjs.dev/svgjs" width="100%" height="100%" viewBox="0 0 1000 600"><rect width="1000" height="600" x="0" y="0" fill="orange"/><g><circle r="166.66666666666666" cx="262.24160257975257" cy="284.46382347709033" fill="#3d155f" transform="matrix(1.3078741254096868,0,0,1.3078741254096866,0,-72.04290946204776)"/><path d="M206.57433888104006 316.84957523223056L206.57433888104006 217.1695034963962L225.16666037674725 217.1695034963962L225.16666037674725 316.57535220132047Q225.16666037674725 336.73074497321545 213.07342471361028 348.08357845289504Q200.98018905047329 359.4638342356657 180.82479627857828 359.4638342356657L180.82479627857828 359.4638342356657Q159.90157902013493 359.4638342356657 148.24710020645415 348.76913603017033Q136.56519908968238 338.0744378246751 136.56519908968238 318.7965587516925L136.56519908968238 318.7965587516925L155.07525367611655 318.7965587516925Q155.07525367611655 330.8349498086475 161.6840287210508 337.5808363690369Q168.2928037659851 344.3267229294262 180.82479627857828 344.3267229294262L180.82479627857828 344.3267229294262Q192.28731897062195 344.3267229294262 199.38969547119447 337.1146572164896Q206.464649668676 329.875169200462 206.57433888104006 316.84957523223056L206.57433888104006 316.84957523223056ZM254.28914625940368 348.1932676652591L254.28914625940368 348.1932676652591Q254.28914625940368 343.55889844287776 257.03137656850504 340.4876004966843Q259.7736068776064 337.3888802473997 265.28548979890013 337.3888802473997Q270.76995041710285 337.3888802473997 273.62186993856824 340.4876004966843Q276.4737894600337 343.55889844287776 276.4737894600337 348.1932676652591L276.4737894600337 348.1932676652591Q276.4737894600337 352.63568076600325 273.62186993856824 355.6247118029238Q270.76995041710285 358.61374283984424 265.28548979890013 358.61374283984424Q259.7736068776064 358.61374283984424 257.03137656850504 355.6247118029238Q254.28914625940368 352.63568076600325 254.28914625940368 348.1932676652591ZM323.69499538275903 209.46383632782138L323.69499538275903 265.8715137860363Q335.568852621168 251.31027084470813 354.54508636014936 251.31027084470813L354.54508636014936 251.31027084470813Q387.6163838879117 251.31027084470813 387.9180292219129 288.60460304848664L387.9180292219129 288.60460304848664L387.9180292219129 357.5442730192947L370.06610990966306 357.5442730192947L370.06610990966306 288.5223361392135Q369.98384300039 277.2243472657159 364.9107169285525 271.8495758598773Q359.865013159806 266.44738215094765 349.14289265121965 266.44738215094765L349.14289265121965 266.44738215094765Q340.47744487445937 266.44738215094765 333.92351443570715 271.05432907023794Q327.36958399695493 275.68869829261916 323.69499538275903 283.2024093395569L323.69499538275903 283.2024093395569L323.69499538275903 357.5442730192947L305.87049837360024 357.5442730192947L305.87049837360024 209.46383632782138L323.69499538275903 209.46383632782138Z " fill="#df678c" transform="matrix(1.3078741254096868,0,0,1.3078741254096866,0,-72.04290946204776)"/><path d="M512.2416136546965 285.8204201628196L512.2416136546965 285.8204201628196Q512.2416136546965 253.0684812098062 531.6214591890239 231.36305421135944Q551.1951031786947 209.4638287575694 589.9547942473496 209.4638287575694Q628.7144853160046 209.4638287575694 648.8695246717051 231.36305421135944Q669.0245640274057 253.0684812098062 669.0245640274057 285.8204201628196L669.0245640274057 285.8204201628196Q669.0245640274057 317.2157699284302 648.8695246717051 338.33980156084704Q628.7144853160046 359.463833193264 589.9547942473496 359.463833193264Q551.1951031786947 359.463833193264 531.6214591890239 338.33980156084704Q512.2416136546965 317.2157699284302 512.2416136546965 285.8204201628196Z " fill="black" transform="matrix(1.3078741254096868,0,0,1.3078741254096866,0,-72.04290946204776)"/></g></svg>